# xmcd
#
# Track frame offsets:
#	150
#	22976
#	46918
#	79203
#	118762
#	165024
#	190229
#	222016
#	249967
#	273294
#	303273
#	329313
#
# Disc length: 4771 seconds
#
# Revision: 1
# Processed by: cddbd v1.5.2PL0 Copyright (c) Steve Scherf et al.
# Submitted via: EZCDAudioConverter 8.5.0.1
#
DISCID=9012a10c
DTITLE=V/A - 12"/80s Chilled 3/3
DYEAR=2014
DGENRE=
TTITLE0=The Human League - Human [Extended Version]
TTITLE1=The Dream Academy - Life In A Northern Town [Extended Mix]
TTITLE2=It's Immaterial - Driving Away From Home (Wicked Weather For Walking)
TTITLE3=New Order - The Perfect Kiss [12" Version]
TTITLE4=Malcolm McLaren - Madam Butterfly [On The Fly Mix]
TTITLE5=Chris Rea - Josephine [La Version Francaise]
TTITLE6=ABC - Poison Arrow [Jazz Remix]
TTITLE7=Crowded House - Don't Dream It's Over [Extended Version]
TTITLE8=Johnny Hates Jazz - Shattered Dreams [12" Extended Mix]
TTITLE9=Swing Out Sister - Surrender [Stuff Gun Mix]
TTITLE10=Bryan Ferry - Slave To Love [12" Remix]
TTITLE11=The Cure - Lovesong [Extended Mix]
EXTD=
EXTT0=
EXTT1=
EXTT2=
EXTT3=
EXTT4=
EXTT5=
EXTT6=
EXTT7=
EXTT8=
EXTT9=
EXTT10=
EXTT11=
PLAYORDER=
